<svg width="24" height="24" viewBox="0 0 24 24" fill="none" xmlns="http://www.w3.org/2000/svg">
<g clip-path="url(#clip0_241_702)">
<path d="M4.48807 24C4.36671 24 4.24446 23.988 4.12273 23.9637C3.63415 23.866 3.21317 23.582 2.93741 23.1639C2.57891 22.6205 2.52576 21.943 2.79449 21.3494L6.56109 11.9992L2.76365 2.5726C2.38073 1.6173 2.83939 0.525495 3.78584 0.138077C4.35715 -0.0957331 5.00392 -0.0297806 5.51607 0.314466L20.5509 10.4428C21.4004 11.0151 21.6312 12.1783 21.0655 13.0358C20.9229 13.2519 20.7416 13.4324 20.5263 13.5723L5.51649 23.6838C5.20736 23.892 4.85172 24 4.48807 24ZM4.48614 0.93771C4.36952 0.93771 4.25238 0.960163 4.14096 1.00577C3.66945 1.19875 3.44183 1.74484 3.63354 2.2231L7.50126 11.8241C7.54654 11.9365 7.54654 12.0621 7.50126 12.1745L3.66012 21.7096C3.65726 21.7165 3.65431 21.7235 3.65117 21.7303C3.51317 22.0302 3.53886 22.3732 3.71993 22.6477C3.85685 22.8552 4.06521 22.9961 4.30657 23.0444C4.54568 23.0922 4.78947 23.0431 4.99267 22.9063L20.0058 12.7925C20.0082 12.7908 20.0107 12.7892 20.0132 12.7876C20.1207 12.7182 20.2114 12.6279 20.283 12.5195C20.5667 12.0894 20.452 11.5066 20.0271 11.2203L4.99272 1.09226C4.84056 0.990022 4.66403 0.93771 4.48614 0.93771Z" fill="#44B806"/>
<path fill-rule="evenodd" clip-rule="evenodd" d="M7.53223 18.3695L16.9884 11.9993L7.53223 5.62903L10.0984 11.9993L7.53223 18.3695Z" fill="#44B806"/>
</g>
<defs>
<clipPath id="clip0_241_702">
<rect width="24" height="24" fill="white"/>
</clipPath>
</defs>
</svg>
