<svg width="366" height="43" viewBox="0 0 366 43" fill="none" xmlns="http://www.w3.org/2000/svg">
<g clip-path="url(#clip0_8_15941)">
<path d="M22 37.625C33.8754 37.625 43.5 29.8061 43.5 20.1562C43.5 10.5064 33.8754 2.6875 22 2.6875C10.1246 2.6875 0.499969 10.5064 0.499969 20.1562C0.499969 23.9439 1.98649 27.4461 4.50602 30.31C4.34645 32.3676 3.5486 34.1984 2.70876 35.5926C2.24684 36.3652 1.77653 36.9867 1.4322 37.4066C1.25583 37.6166 1.12145 37.7762 1.02067 37.8854C0.970281 37.9357 0.936687 37.9777 0.911492 38.0029L0.886297 38.0281C0.499969 38.4145 0.390789 38.9855 0.60075 39.4895C0.810711 39.9934 1.29782 40.3209 1.84372 40.3209C4.25407 40.3209 6.68122 39.5734 8.69684 38.7C10.6201 37.8602 12.2578 36.8607 13.2572 36.1301C15.9279 37.0959 18.8841 37.6334 22 37.6334V37.625ZM8.56247 17.8719C8.56247 16.167 9.94821 14.7812 11.6531 14.7812H13.2656C14.0047 14.7812 14.6093 15.3859 14.6093 16.125C14.6093 16.8641 14.0047 17.4688 13.2656 17.4688H11.6531C11.4263 17.4688 11.25 17.6535 11.25 17.8719C11.25 18.0063 11.3172 18.1322 11.4347 18.2078L13.9039 19.8539C14.7689 20.425 15.2812 21.3908 15.2812 22.4322C15.2812 24.1371 13.8955 25.5229 12.1906 25.5229H9.90622C9.16716 25.5229 8.56247 24.9182 8.56247 24.1791C8.56247 23.44 9.16716 22.8354 9.90622 22.8354H12.1906C12.4174 22.8354 12.5937 22.6506 12.5937 22.4322C12.5937 22.2979 12.5265 22.1719 12.409 22.0963L9.93981 20.4502C9.08317 19.8791 8.56247 18.9133 8.56247 17.8719ZM31.8093 14.7812H33.4218C34.1609 14.7812 34.7656 15.3859 34.7656 16.125C34.7656 16.8641 34.1609 17.4688 33.4218 17.4688H31.8093C31.5826 17.4688 31.4062 17.6535 31.4062 17.8719C31.4062 18.0063 31.4734 18.1322 31.591 18.2078L34.0601 19.8539C34.9168 20.425 35.4375 21.3908 35.4375 22.4322C35.4375 24.1371 34.0517 25.5229 32.3468 25.5229H30.0625C29.3234 25.5229 28.7187 24.9182 28.7187 24.1791C28.7187 23.44 29.3234 22.8354 30.0625 22.8354H32.3468C32.5736 22.8354 32.75 22.6506 32.75 22.4322C32.75 22.2979 32.6828 22.1719 32.5652 22.0963L30.0961 20.4502C29.2394 19.8791 28.7187 18.9133 28.7187 17.8719C28.7187 16.167 30.1045 14.7812 31.8093 14.7812ZM19.0437 15.3187L22 19.2576L24.9562 15.3187C25.3006 14.8568 25.9052 14.6637 26.4595 14.8484C27.0138 15.0332 27.375 15.5455 27.375 16.125V24.1875C27.375 24.9266 26.7703 25.5312 26.0312 25.5312C25.2922 25.5312 24.6875 24.9266 24.6875 24.1875V20.1562L23.075 22.3062C22.823 22.6422 22.4199 22.8438 22 22.8438C21.58 22.8438 21.1769 22.6422 20.925 22.3062L19.3125 20.1562V24.1875C19.3125 24.9266 18.7078 25.5312 17.9687 25.5312C17.2297 25.5312 16.625 24.9266 16.625 24.1875V16.125C16.625 15.5455 16.9945 15.0332 17.5404 14.8484C18.0863 14.6637 18.691 14.8568 19.0437 15.3187Z" fill="white"/>
</g>
<path d="M51.772 32L60.952 7.69H63.536L72.784 32H70.336L67.514 24.35H56.94L54.084 32H51.772ZM57.62 22.48H66.834L63.502 13.402L62.278 9.866H62.21C61.7793 11.2487 61.3827 12.4273 61.02 13.402L57.62 22.48ZM74.8168 32V14.422H76.9248V17.108H76.9928C78.3755 15.068 80.3362 14.048 82.8748 14.048C84.5522 14.048 85.9008 14.5353 86.9208 15.51C87.9635 16.462 88.4848 17.7993 88.4848 19.522V32H86.3768V19.726C86.3768 17.142 85.0395 15.85 82.3648 15.85C80.8462 15.85 79.5542 16.326 78.4888 17.278C77.4462 18.23 76.9248 19.42 76.9248 20.848V32H74.8168ZM99.1252 30.674C101.007 30.674 102.469 29.9713 103.511 28.566C104.554 27.1607 105.075 25.3813 105.075 23.228C105.075 21.0747 104.554 19.2953 103.511 17.89C102.469 16.4847 101.007 15.782 99.1252 15.782C97.2212 15.782 95.7479 16.4847 94.7052 17.89C93.6626 19.2953 93.1412 21.0747 93.1412 23.228C93.1412 25.3813 93.6626 27.1607 94.7052 28.566C95.7479 29.9713 97.2212 30.674 99.1252 30.674ZM99.1252 32.442C96.6319 32.442 94.6486 31.5807 93.1752 29.858C91.7019 28.1127 90.9652 25.9027 90.9652 23.228C90.9652 20.5533 91.7019 18.3547 93.1752 16.632C94.6486 14.8867 96.6319 14.014 99.1252 14.014C101.596 14.014 103.557 14.8867 105.007 16.632C106.481 18.3547 107.217 20.5533 107.217 23.228C107.217 25.9027 106.481 28.1127 105.007 29.858C103.557 31.5807 101.596 32.442 99.1252 32.442ZM109.879 32V14.422H111.987V17.108H112.055C113.438 15.068 115.399 14.048 117.937 14.048C119.615 14.048 120.963 14.5353 121.983 15.51C123.026 16.462 123.547 17.7993 123.547 19.522V32H121.439V19.726C121.439 17.142 120.102 15.85 117.427 15.85C115.909 15.85 114.617 16.326 113.551 17.278C112.509 18.23 111.987 19.42 111.987 20.848V32H109.879ZM127.014 32V14.422H129.122V32H127.014ZM127.014 10.682V7.69H129.122V10.682H127.014ZM139.966 32.442C137.405 32.442 135.399 31.592 133.948 29.892C132.497 28.1693 131.772 25.948 131.772 23.228C131.772 20.5533 132.509 18.3547 133.982 16.632C135.455 14.8867 137.393 14.014 139.796 14.014C141.156 14.014 142.335 14.2747 143.332 14.796C144.352 15.3173 145.145 16.0427 145.712 16.972C146.279 17.9013 146.687 18.9213 146.936 20.032C147.208 21.12 147.344 22.31 147.344 23.602H133.948C133.993 25.6873 134.526 27.3873 135.546 28.702C136.566 29.994 138.039 30.64 139.966 30.64C142.641 30.64 144.352 29.3253 145.1 26.696H147.14C146.755 28.464 145.939 29.8693 144.692 30.912C143.468 31.932 141.893 32.442 139.966 32.442ZM133.982 21.936H145.134C145.089 20.1 144.613 18.6153 143.706 17.482C142.822 16.326 141.519 15.748 139.796 15.748C138.096 15.748 136.747 16.3147 135.75 17.448C134.775 18.5813 134.186 20.0773 133.982 21.936ZM149.956 32V14.422H152.064V17.074H152.132C153.401 15.0567 155.18 14.048 157.47 14.048C158.58 14.048 159.555 14.3313 160.394 14.898C161.232 15.442 161.822 16.224 162.162 17.244H162.23C163.454 15.1133 165.335 14.048 167.874 14.048C169.415 14.048 170.684 14.5353 171.682 15.51C172.679 16.462 173.178 17.7993 173.178 19.522V32H171.104V19.692C171.104 18.4227 170.764 17.4707 170.084 16.836C169.404 16.1787 168.508 15.85 167.397 15.85C166.06 15.85 164.927 16.3033 163.998 17.21C163.091 18.094 162.638 19.2953 162.638 20.814V32H160.53V19.692C160.53 18.4227 160.201 17.4707 159.544 16.836C158.909 16.1787 158.059 15.85 156.994 15.85C155.702 15.85 154.557 16.3373 153.56 17.312C152.562 18.264 152.064 19.4313 152.064 20.814V32H149.956ZM189.721 32.476C187.205 32.476 185.267 31.4333 183.907 29.348H183.839V32H181.731V7.69H183.839V17.448H183.907C185.267 15.1813 187.25 14.048 189.857 14.048C192.01 14.048 193.756 14.8753 195.093 16.53C196.43 18.162 197.099 20.406 197.099 23.262C197.099 26.0047 196.43 28.226 195.093 29.926C193.778 31.626 191.988 32.476 189.721 32.476ZM189.619 30.708C191.342 30.708 192.656 30.0167 193.563 28.634C194.492 27.2513 194.957 25.472 194.957 23.296C194.957 21.052 194.481 19.25 193.529 17.89C192.6 16.5073 191.285 15.816 189.585 15.816C187.704 15.816 186.242 16.5187 185.199 17.924C184.179 19.3293 183.669 21.12 183.669 23.296C183.669 25.54 184.179 27.342 185.199 28.702C186.242 30.0393 187.715 30.708 189.619 30.708ZM207.036 32.442C204.475 32.442 202.469 31.592 201.018 29.892C199.568 28.1693 198.842 25.948 198.842 23.228C198.842 20.5533 199.579 18.3547 201.052 16.632C202.526 14.8867 204.464 14.014 206.866 14.014C208.226 14.014 209.405 14.2747 210.402 14.796C211.422 15.3173 212.216 16.0427 212.782 16.972C213.349 17.9013 213.757 18.9213 214.006 20.032C214.278 21.12 214.414 22.31 214.414 23.602H201.018C201.064 25.6873 201.596 27.3873 202.616 28.702C203.636 29.994 205.11 30.64 207.036 30.64C209.711 30.64 211.422 29.3253 212.17 26.696H214.21C213.825 28.464 213.009 29.8693 211.762 30.912C210.538 31.932 208.963 32.442 207.036 32.442ZM201.052 21.936H212.204C212.159 20.1 211.683 18.6153 210.776 17.482C209.892 16.326 208.589 15.748 206.866 15.748C205.166 15.748 203.818 16.3147 202.82 17.448C201.846 18.5813 201.256 20.0773 201.052 21.936ZM217.026 32V14.422H219.134V17.686H219.202C220.403 15.4193 222.194 14.286 224.574 14.286C224.778 14.286 224.97 14.3087 225.152 14.354V16.428C223.769 16.2013 222.522 16.4847 221.412 17.278C219.893 18.4113 219.134 19.9867 219.134 22.004V32H217.026ZM227.553 32V14.422H229.661V32H227.553ZM227.553 10.682V7.69H229.661V10.682H227.553ZM240.301 32.442C237.808 32.442 235.847 31.5807 234.419 29.858C233.014 28.1353 232.311 25.9253 232.311 23.228C232.311 20.5307 233.025 18.3207 234.453 16.598C235.881 14.8753 237.842 14.014 240.335 14.014C242.284 14.014 243.871 14.524 245.095 15.544C246.342 16.5413 247.112 17.9353 247.407 19.726H245.299C244.778 17.0967 243.123 15.782 240.335 15.782C238.408 15.782 236.946 16.4847 235.949 17.89C234.974 19.2727 234.487 21.052 234.487 23.228C234.487 25.404 234.974 27.1833 235.949 28.566C236.946 29.9487 238.397 30.64 240.301 30.64C241.774 30.64 242.964 30.2207 243.871 29.382C244.778 28.5207 245.322 27.376 245.503 25.948H247.509C247.305 27.9653 246.568 29.552 245.299 30.708C244.03 31.864 242.364 32.442 240.301 32.442ZM250.032 32V7.69H252.14V17.108H252.208C253.591 15.068 255.551 14.048 258.09 14.048C259.767 14.048 261.116 14.5353 262.136 15.51C263.179 16.462 263.7 17.7993 263.7 19.522V32H261.592V19.726C261.592 17.142 260.255 15.85 257.58 15.85C256.061 15.85 254.769 16.326 253.704 17.278C252.661 18.23 252.14 19.42 252.14 20.848V32H250.032ZM271.592 32.136C269.348 32.136 268.226 31.082 268.226 28.974V16.156H265.574V14.422H268.226V9.016H270.334V14.422H273.598V16.156H270.334V28.634C270.334 29.246 270.47 29.6767 270.742 29.926C271.014 30.1753 271.445 30.3 272.034 30.3C272.555 30.3 273.02 30.2093 273.428 30.028H273.53V31.83C272.963 32.034 272.317 32.136 271.592 32.136ZM287.627 32.476C285.36 32.476 283.604 31.932 282.357 30.844C281.133 29.756 280.464 28.3167 280.351 26.526H282.493C282.788 29.2913 284.51 30.674 287.661 30.674C289.089 30.674 290.188 30.368 290.959 29.756C291.73 29.144 292.115 28.3167 292.115 27.274C292.115 26.322 291.786 25.6193 291.129 25.166C290.494 24.7127 289.259 24.282 287.423 23.874C286.358 23.6247 285.508 23.398 284.873 23.194C284.238 22.99 283.581 22.7067 282.901 22.344C282.244 21.9587 281.756 21.4827 281.439 20.916C281.144 20.3267 280.997 19.624 280.997 18.808C280.997 17.3573 281.564 16.2013 282.697 15.34C283.83 14.4787 285.304 14.048 287.117 14.048C291.016 14.048 293.192 15.782 293.645 19.25H291.537C291.288 16.938 289.814 15.782 287.117 15.782C285.802 15.782 284.805 16.054 284.125 16.598C283.445 17.142 283.105 17.8447 283.105 18.706C283.105 19.6353 283.468 20.304 284.193 20.712C284.918 21.0973 286.233 21.5167 288.137 21.97C290.222 22.4007 291.752 22.9787 292.727 23.704C293.724 24.4067 294.223 25.5853 294.223 27.24C294.223 28.8267 293.622 30.096 292.421 31.048C291.242 32 289.644 32.476 287.627 32.476ZM301.143 32.136C298.899 32.136 297.777 31.082 297.777 28.974V16.156H295.125V14.422H297.777V9.016H299.885V14.422H303.149V16.156H299.885V28.634C299.885 29.246 300.021 29.6767 300.293 29.926C300.565 30.1753 300.996 30.3 301.585 30.3C302.106 30.3 302.571 30.2093 302.979 30.028H303.081V31.83C302.514 32.034 301.868 32.136 301.143 32.136ZM311.555 32.408C309.832 32.408 308.438 31.9207 307.373 30.946C306.307 29.9487 305.775 28.5773 305.775 26.832V14.422H307.883V26.696C307.883 27.988 308.245 28.974 308.971 29.654C309.696 30.3113 310.716 30.64 312.031 30.64C313.527 30.64 314.751 30.1413 315.703 29.144C316.655 28.1467 317.131 26.9 317.131 25.404V14.422H319.205V32H317.131V29.416H317.063C316.36 30.368 315.589 31.1047 314.751 31.626C313.912 32.1473 312.847 32.408 311.555 32.408ZM322.745 32V14.422H324.853V17.686H324.921C326.122 15.4193 327.913 14.286 330.293 14.286C330.497 14.286 330.689 14.3087 330.871 14.354V16.428C329.488 16.2013 328.241 16.4847 327.131 17.278C325.612 18.4113 324.853 19.9867 324.853 22.004V32H322.745ZM339.616 32.442C337.055 32.442 335.049 31.592 333.598 29.892C332.148 28.1693 331.422 25.948 331.422 23.228C331.422 20.5533 332.159 18.3547 333.632 16.632C335.106 14.8867 337.044 14.014 339.446 14.014C340.806 14.014 341.985 14.2747 342.982 14.796C344.002 15.3173 344.796 16.0427 345.362 16.972C345.929 17.9013 346.337 18.9213 346.586 20.032C346.858 21.12 346.994 22.31 346.994 23.602H333.598C333.644 25.6873 334.176 27.3873 335.196 28.702C336.216 29.994 337.69 30.64 339.616 30.64C342.291 30.64 344.002 29.3253 344.75 26.696H346.79C346.405 28.464 345.589 29.8693 344.342 30.912C343.118 31.932 341.543 32.442 339.616 32.442ZM333.632 21.936H344.784C344.739 20.1 344.263 18.6153 343.356 17.482C342.472 16.326 341.169 15.748 339.446 15.748C337.746 15.748 336.398 16.3147 335.4 17.448C334.426 18.5813 333.836 20.0773 333.632 21.936ZM349.606 32V14.422H351.714V17.108H351.782C353.165 15.068 355.125 14.048 357.664 14.048C359.341 14.048 360.69 14.5353 361.71 15.51C362.753 16.462 363.274 17.7993 363.274 19.522V32H361.166V19.726C361.166 17.142 359.829 15.85 357.154 15.85C355.635 15.85 354.343 16.326 353.278 17.278C352.235 18.23 351.714 19.42 351.714 20.848V32H349.606Z" fill="white"/>
<defs>
<clipPath id="clip0_8_15941">
<rect width="43" height="43" fill="white" transform="translate(0.5)"/>
</clipPath>
</defs>
</svg>
